<svg xmlns="http://www.w3.org/2000/svg" width="24" height="24" viewBox="0 0 24 24">
    <defs>
        <style>
            .cls-1,.cls-2{fill:none}.cls-2{stroke:#393f4d;stroke-linecap:round;stroke-linejoin:round;stroke-width:1.5px}
        </style>
    </defs>
    <g id="Group_81" data-name="Group 81" transform="translate(-43.254 -270)">
        <path id="Rectangle_183" d="M0 0h24v24H0z" class="cls-1" data-name="Rectangle 183" transform="translate(43.254 270)"/>
        <g id="Group_80" data-name="Group 80" transform="translate(-393.13 -42.467)">
            <path id="Rectangle_182" d="M0 0h13.015v16H0z" class="cls-2" data-name="Rectangle 182" transform="translate(442.623 316.467)"/>
            <path id="Line_5" d="M0 0h3.125" class="cls-2" data-name="Line 5" transform="translate(441.13 320.432)"/>
            <path id="Line_6" d="M0 0h3.125" class="cls-2" data-name="Line 6" transform="translate(441.13 324.724)"/>
            <path id="Line_7" d="M0 0h3.125" class="cls-2" data-name="Line 7" transform="translate(441.13 329.015)"/>
            <path id="Path_31" d="M445.141 325.708v-.793a1.959 1.959 0 0 1 1.96-1.958h1.586a1.958 1.958 0 0 1 1.958 1.958v.793" class="cls-2" data-name="Path 31" transform="translate(1.727 2.794)"/>
            <circle id="Ellipse_6" cx="1.609" cy="1.609" r="1.609" class="cls-2" data-name="Ellipse 6" transform="translate(447.964 320.759)"/>
        </g>
    </g>
</svg>
