<svg xmlns="http://www.w3.org/2000/svg" width="55" height="48.524" viewBox="0 0 55 48.524"><defs><style>.a{fill:#51d2b7;}</style></defs><g transform="translate(0 -25)"><path class="a" d="M121.782,217.813a.9.9,0,0,1-.588-.216l-5.875-5a.908.908,0,0,1,0-1.383l5.875-5a.908.908,0,1,1,1.177,1.383l-5.063,4.312,5.063,4.312a.908.908,0,0,1-.589,1.6Z" transform="translate(-100.083 -157.513)"/><path class="a" d="M250.62,217.813a.908.908,0,0,1-.589-1.6l5.063-4.312-5.063-4.312a.908.908,0,0,1,1.177-1.383l5.875,5a.908.908,0,0,1,0,1.382l-5.875,5A.9.9,0,0,1,250.62,217.813Z" transform="translate(-217.319 -157.513)"/><path class="a" d="M189.867,197.224a.919.919,0,0,1-.188-.02.908.908,0,0,1-.7-1.076l3.662-17.387a.908.908,0,0,1,1.777.374L190.754,196.5A.908.908,0,0,1,189.867,197.224Z" transform="translate(-164.446 -133.171)"/><path class="a" d="M48.9,73.524H6.1a6.1,6.1,0,0,1-6.1-6.1V31.1A6.1,6.1,0,0,1,6.1,25H48.9A6.1,6.1,0,0,1,55,31.1V67.428A6.1,6.1,0,0,1,48.9,73.524ZM6.1,26.816A4.286,4.286,0,0,0,1.816,31.1V67.428A4.285,4.285,0,0,0,6.1,71.708H48.9a4.285,4.285,0,0,0,4.281-4.281V31.1A4.286,4.286,0,0,0,48.9,26.816Z"/><path class="a" d="M54.092,124.906H.908a.908.908,0,1,1,0-1.816H54.092a.908.908,0,1,1,0,1.816Z" transform="translate(0 -85.366)"/><path class="a" d="M100.323,65.036h-.01a2.873,2.873,0,0,1,.009-5.747h.01A2.872,2.872,0,0,1,103.2,62.17v0A2.876,2.876,0,0,1,100.323,65.036Zm0-3.931a1.057,1.057,0,0,0,0,2.115h0a1.057,1.057,0,0,0,0-2.115Zm1.965,1.064h0Z" transform="translate(-84.808 -29.841)"/><path class="a" d="M32.264,64.816h-.01a2.873,2.873,0,1,1,2.883-2.864h0a2.874,2.874,0,0,1-2.873,2.864Zm0-3.931a1.057,1.057,0,0,0,0,2.115h0a1.057,1.057,0,0,0,0-2.115Zm1.965,1.064h0Z" transform="translate(-25.578 -29.65)"/><path class="a" d="M168.386,65.248h-.009a2.874,2.874,0,0,1,.008-5.748h.009a2.876,2.876,0,0,1,2.865,2.88v.012A2.877,2.877,0,0,1,168.386,65.248Zm0-3.932a1.058,1.058,0,0,0,0,2.116h0a1.059,1.059,0,0,0,1.058-1.054v-.008a1.058,1.058,0,0,0-1.054-1.053Zm1.965,1.064h0Z" transform="translate(-144.042 -30.025)"/></g></svg>