<svg xmlns="http://www.w3.org/2000/svg" width="35.777" height="35.777" viewBox="0 0 35.777 35.777"><defs><style>.a{fill:none;stroke:#51d2b7;stroke-linecap:round;stroke-linejoin:round;stroke-width:1.5px;}</style></defs><g transform="translate(-739.37 -216.133)"><path class="a" d="M741.768,227.954a15.736,15.736,0,0,1,9.561-9.461" transform="translate(0.733 0.716)"/><path class="a" d="M751.191,241.9a15.738,15.738,0,0,1-9.461-9.559" transform="translate(0.716 6.878)"/><path class="a" d="M765.138,232.449a15.739,15.739,0,0,1-9.559,9.46" transform="translate(6.878 6.925)"/><path class="a" d="M755.686,218.531a15.738,15.738,0,0,1,9.46,9.559" transform="translate(6.925 0.733)"/><g transform="translate(751.644 216.883)"><path class="a" d="M753.711,226.743a8.733,8.733,0,0,1,2.657.415L759.495,218a15.532,15.532,0,0,0-11.4-.061l3.014,9.2A8.737,8.737,0,0,1,753.711,226.743Z" transform="translate(-748.096 -216.883)"/></g><g transform="translate(751.475 240.885)"><path class="a" d="M753.763,233.911a8.7,8.7,0,0,1-2.658-.416l-3.125,9.161a15.542,15.542,0,0,0,11.4.062l-3.016-9.2A8.721,8.721,0,0,1,753.763,233.911Z" transform="translate(-747.979 -233.495)"/></g><g transform="translate(764.122 228.407)"><path class="a" d="M757.148,230.474a8.687,8.687,0,0,1-.416,2.657l9.161,3.127a15.541,15.541,0,0,0,.062-11.4l-9.2,3.014A8.732,8.732,0,0,1,757.148,230.474Z" transform="translate(-756.732 -224.859)"/></g><g transform="translate(740.12 228.237)"><path class="a" d="M749.98,230.526a8.744,8.744,0,0,1,.415-2.659l-9.159-3.127a15.522,15.522,0,0,0-.062,11.4l9.2-3.014A8.683,8.683,0,0,1,749.98,230.526Z" transform="translate(-740.12 -224.741)"/></g><path class="a" d="M751.4,235.971a8.756,8.756,0,0,1-5.086-5.132" transform="translate(2.757 6.209)"/><path class="a" d="M759.208,230.89a8.752,8.752,0,0,1-5.132,5.086" transform="translate(6.209 6.232)"/><path class="a" d="M754.127,223.1a8.75,8.75,0,0,1,5.086,5.131" transform="translate(6.232 2.765)"/><path class="a" d="M746.336,228.166a8.75,8.75,0,0,1,5.131-5.086" transform="translate(2.765 2.757)"/></g></svg>