<svg xmlns="http://www.w3.org/2000/svg" width="32.194" height="24.5" viewBox="0 0 32.194 24.5"><defs><style>.a{fill:#51d2b7;}</style></defs><g transform="translate(0 -57.75)"><g transform="translate(0 57.75)"><path class="a" d="M28.264,57.75H3.937A3.94,3.94,0,0,0,0,61.687V78.313A3.94,3.94,0,0,0,3.937,82.25h24.32a3.94,3.94,0,0,0,3.937-3.937V61.693A3.936,3.936,0,0,0,28.264,57.75ZM30.4,78.313a2.141,2.141,0,0,1-2.138,2.138H3.937A2.141,2.141,0,0,1,1.8,78.313V61.693a2.141,2.141,0,0,1,2.138-2.138h24.32A2.141,2.141,0,0,1,30.4,61.693v16.62Z" transform="translate(0 -57.75)"/><path class="a" d="M72.342,117.539l7.874-7.061a.9.9,0,0,0-1.206-1.339l-10.858,9.745-2.118-1.892c-.007-.007-.013-.013-.013-.02a1.334,1.334,0,0,0-.147-.127l-8.62-7.714a.9.9,0,0,0-1.2,1.346l7.967,7.121-7.934,7.427a.9.9,0,0,0-.04,1.272.92.92,0,0,0,.659.286.9.9,0,0,0,.613-.24l8.053-7.534,2.185,1.952a.9.9,0,0,0,1.2-.007L71,118.744l8.007,7.607a.9.9,0,0,0,1.272-.033.9.9,0,0,0-.033-1.272Z" transform="translate(-52.039 -105.495)"/></g></g></svg>