<svg xmlns="http://www.w3.org/2000/svg" width="51.117" height="19.901" viewBox="0 0 51.117 19.901"><defs><style>.a{fill:#51d2b7;}</style></defs><g transform="translate(1521.193 -742.293)"><path class="a" d="M-1515.952,763.126l-5.241-19.817c.318,0,.621-.018.921,0a4.337,4.337,0,0,1,1.982.6,3.339,3.339,0,0,1,1.486,2.105c.5,1.884.977,3.773,1.464,5.66l1.271,4.929c.005.02.014.04.03.087.025-.08.044-.136.059-.192q1.144-4.366,2.288-8.733a8.477,8.477,0,0,1,.808-2.017,2.885,2.885,0,0,1,1.847-1.4,4.123,4.123,0,0,1,3.062.314,2.5,2.5,0,0,1,.967.933,8.035,8.035,0,0,1,.943,2.3q.623,2.375,1.244,4.751.519,1.978,1.039,3.956a.089.089,0,0,0,.037.055c.011-.036.024-.073.034-.11q1.339-5.189,2.677-10.379a3.933,3.933,0,0,1,.887-1.74,3.408,3.408,0,0,1,1.582-.934,5.4,5.4,0,0,1,1.866-.195.938.938,0,0,1,.1.017l-5.236,19.8a6.393,6.393,0,0,1-2.281-.2,3.248,3.248,0,0,1-2.08-1.951,16.459,16.459,0,0,1-.656-2.117q-1.081-4.349-2.16-8.7c-.106-.427-.221-.852-.339-1.277a1.649,1.649,0,0,0-.129-.32.448.448,0,0,0-.415-.274.431.431,0,0,0-.408.283,4.854,4.854,0,0,0-.241.7c-.332,1.3-.655,2.6-.98,3.905-.549,2.193-1.091,4.388-1.653,6.578a11.02,11.02,0,0,1-.457,1.305,3.136,3.136,0,0,1-1.546,1.661,4.215,4.215,0,0,1-1.81.405C-1515.309,763.137-1515.626,763.126-1515.952,763.126Z" transform="translate(0 -0.974)"/><path class="a" d="M-216.51,743.323l-.738,1.1-3.529,5.248q-1.156,1.719-2.313,3.437a.142.142,0,0,0,0,.191q3,4.458,6,8.919l.567.842c-.222.014-.423.033-.624.04a7.741,7.741,0,0,1-2.338-.247,3.767,3.767,0,0,1-1.8-1.177,24.342,24.342,0,0,1-1.956-2.571q-.914-1.325-1.833-2.647l-.008-.01c-.3-.429-.653-.429-.952,0-.617.888-1.231,1.78-1.85,2.667a27.146,27.146,0,0,1-1.669,2.29,5.062,5.062,0,0,1-1.073,1.024,4.4,4.4,0,0,1-1.748.59,9.084,9.084,0,0,1-2.21.039c.039-.062.069-.111.1-.158l5.506-8.185c.31-.461.617-.925.934-1.382a.2.2,0,0,0,0-.267q-2.509-3.723-5.013-7.45l-1.468-2.182c-.021-.031-.041-.064-.077-.122.207-.021.395-.044.583-.057a7.448,7.448,0,0,1,2.093.119,3.524,3.524,0,0,1,1.952,1.151,23.433,23.433,0,0,1,1.783,2.316q1.077,1.563,2.163,3.121a1.208,1.208,0,0,0,.1.131.446.446,0,0,0,.723,0c.225-.273.418-.572.622-.863.814-1.163,1.614-2.336,2.446-3.486.36-.5.778-.954,1.187-1.414a3.119,3.119,0,0,1,1.686-.941,7.585,7.585,0,0,1,2.64-.092C-216.588,743.3-216.559,743.313-216.51,743.323Z" transform="translate(-1253.566 -0.911)"/><path class="a" d="M-432.785,871.913v.138q0,6.449,0,12.9a7.371,7.371,0,0,1-.19,1.9,1.885,1.885,0,0,1-.856,1.138,3.314,3.314,0,0,1-1.744.481c-.251.007-.5,0-.772,0v-.194q0-6.61-.005-13.219a1.534,1.534,0,0,1,.934-1.512c.45-.217.906-.422,1.355-.643A3.99,3.99,0,0,0-432.785,871.913Z" transform="translate(-1056.987 -126.292)"/><path class="a" d="M-436.421,746.612c0-.2,0-.366,0-.531a7.588,7.588,0,0,1,.206-1.863,2.32,2.32,0,0,1,.7-1.224,2.519,2.519,0,0,1,1.112-.545,7.494,7.494,0,0,1,1.434-.154c.1,0,.137.031.139.133a4.933,4.933,0,0,1-.183,1.607,1.946,1.946,0,0,1-.481.8,4.886,4.886,0,0,1-1.727,1.044,3.61,3.61,0,0,0-1.06.634C-436.315,746.544-436.355,746.567-436.421,746.612Z" transform="translate(-1056.924 0)"/></g></svg>