<svg xmlns="http://www.w3.org/2000/svg" width="39.098" height="39.098" viewBox="0 0 39.098 39.098"><defs><style>.a{fill:#51d2b7;}</style></defs><path class="a" d="M19.549,0A19.549,19.549,0,1,0,39.1,19.549,19.571,19.571,0,0,0,19.549,0ZM1.971,19.547A17.435,17.435,0,0,1,3.493,12.4l8.386,22.97a17.584,17.584,0,0,1-9.908-15.82ZM19.549,37.126a17.466,17.466,0,0,1-4.965-.718l5.273-15.323,5.4,14.8a2.644,2.644,0,0,0,.125.244,17.6,17.6,0,0,1-5.834.994Zm2.419-25.813v0c1.056-.055,2.009-.165,2.009-.165A.728.728,0,0,0,23.866,9.7s-2.846.22-4.682.22c-1.727,0-4.628-.22-4.628-.22a.728.728,0,0,0-.109,1.451s.9.111,1.844.165l2.735,7.5L15.18,30.348l-6.4-19.036c1.057-.055,2.01-.165,2.01-.165A.728.728,0,0,0,10.68,9.7s-2.846.22-4.682.22c-.331,0-.718-.008-1.135-.023A17.58,17.58,0,0,1,31.42,6.581a2.171,2.171,0,0,0-.228-.015,3.042,3.042,0,0,0-2.949,3.121c0,1.45.836,2.672,1.727,4.123a9.227,9.227,0,0,1,1.452,4.848,21.087,21.087,0,0,1-1.341,5.684L28.33,30.2Zm13.008-.2a17.58,17.58,0,0,1-6.59,23.625l0,0,5.368-15.522a16.642,16.642,0,0,0,1.341-6.3,13.017,13.017,0,0,0-.117-1.8Z"/></svg>